<?xml version="1.0" encoding="iso-8859-1"?>
<!-- Generator: Adobe Illustrator 19.0.0, SVG Export Plug-In . SVG Version: 6.00 Build 0)  -->
<svg xmlns="http://www.w3.org/2000/svg" xmlns:xlink="http://www.w3.org/1999/xlink" version="1.1" id="Layer_1" x="0px" y="0px" viewBox="0 0 512 512" style="enable-background:new 0 0 512 512;" xml:space="preserve" width="512px" height="512px">
<g transform="translate(1 1)">
	<g>
		<g>
			<path d="M430.787,391.533h-14.123L392.387,78.36c-0.853-11.093-10.24-19.627-21.333-19.627H138.947     c-11.093,0-20.48,8.533-21.333,19.627L93.336,391.533h-13.27c-11.947,0-21.333,9.387-21.333,20.48v77.653     c0,11.947,9.387,21.333,21.333,21.333h349.867c11.947,0,21.333-9.387,22.187-20.48v-77.653     C452.12,400.92,442.733,391.533,430.787,391.533z M134.68,80.067c0-2.56,1.707-4.267,4.267-4.267h232.107     c2.56,0,4.267,1.707,4.267,4.267l23.893,311.467h-110.08v-17.067h8.533c5.12,0,8.533-3.413,8.533-8.533s-3.413-8.533-8.533-8.533     h-8.533v-34.133h-25.6V306.2H280.6c5.12,0,8.533-3.413,8.533-8.533s-3.413-8.533-8.533-8.533h-17.067V252.1     c12.829,15.885,31.891,26.639,53.76,28.5h0.853c3.413,0,6.827-1.707,9.387-3.413c2.56-2.56,4.267-6.827,4.267-10.24V140.653     c0-4.267-1.707-7.68-4.267-10.24S320.707,127,317.293,127c-27.435,2.335-50.471,18.65-62.293,41.561     c-11.822-22.911-34.858-39.226-62.293-41.561c-4.267,0-7.68,0.853-10.24,3.413s-4.267,6.827-4.267,10.24v126.293     c0,4.267,1.707,7.68,4.267,10.24c2.56,1.707,5.973,3.413,9.387,3.413h0.853c21.869-1.861,40.931-12.615,53.76-28.5v37.033H229.4     c-5.12,0-8.533,3.413-8.533,8.533s3.413,8.533,8.533,8.533h17.067v17.067h-25.6V357.4h-8.533c-5.12,0-8.533,3.413-8.533,8.533     s3.413,8.533,8.533,8.533h8.533v17.067h-110.08L134.68,80.067z M237.933,374.467h34.133v17.067h-34.133V374.467z      M272.067,340.333V357.4h-34.133v-17.067H272.067z M263.533,203.8c0-29.867,22.187-54.613,51.2-58.88v117.76     C285.72,258.413,263.533,233.667,263.533,203.8z M246.467,204.653c0,29.867-22.187,54.613-51.2,58.88V144.92     C224.28,149.187,246.467,173.933,246.467,204.653z M435.053,489.667c0,2.56-1.707,4.267-4.267,4.267h-39.253v-25.6     c0-5.12-3.413-8.533-8.533-8.533s-8.533,3.413-8.533,8.533v25.6h-25.6v-25.6c0-5.12-3.413-8.533-8.533-8.533     s-8.533,3.413-8.533,8.533v25.6h-25.6v-25.6c0-5.12-3.413-8.533-8.533-8.533s-8.533,3.413-8.533,8.533v25.6h-25.6v-25.6     c0-5.12-3.413-8.533-8.533-8.533c-5.12,0-8.533,3.413-8.533,8.533v25.6h-25.6v-25.6c0-5.12-3.413-8.533-8.533-8.533     s-8.533,3.413-8.533,8.533v25.6h-25.6v-25.6c0-5.12-3.413-8.533-8.533-8.533c-5.12,0-8.533,3.413-8.533,8.533v25.6h-25.6v-25.6     c0-5.12-3.413-8.533-8.533-8.533s-8.533,3.413-8.533,8.533v25.6h-38.4c-2.56,0-4.267-1.707-4.267-3.413v-77.653     c0-2.56,1.707-4.267,4.267-4.267v-0.853h12.013l-0.066,0.853h128.853h68.267h128.853l-0.066-0.853h12.866     c2.56,0,4.267,1.707,4.267,4.267V489.667z" fill="#ffbf00"/>
			<path d="M408.6,58.733c2.56,0,4.267-0.853,5.973-2.56l25.6-25.6c3.413-3.413,3.413-8.533,0-11.947s-8.533-3.413-11.947,0     l-25.6,25.6c-3.413,3.413-3.413,8.533,0,11.947C404.333,57.88,406.04,58.733,408.6,58.733z" fill="#ffbf00"/>
			<path d="M246.467,41.667c5.12,0,8.533-3.413,8.533-8.533v-25.6C255,2.413,251.587-1,246.467-1s-8.533,3.413-8.533,8.533v25.6     C237.933,38.253,241.347,41.667,246.467,41.667z" fill="#ffbf00"/>
			<path d="M434.2,195.267c0,5.12,3.413,8.533,8.533,8.533h25.6c5.12,0,8.533-3.413,8.533-8.533s-3.413-8.533-8.533-8.533h-25.6     C437.613,186.733,434.2,190.147,434.2,195.267z" fill="#ffbf00"/>
			<path d="M485.4,323.267h-25.6c-5.12,0-8.533,3.413-8.533,8.533c0,5.12,3.413,8.533,8.533,8.533h25.6     c5.12,0,8.533-3.413,8.533-8.533C493.933,326.68,490.52,323.267,485.4,323.267z" fill="#ffbf00"/>
			<path d="M86.893,64.707c1.707,1.707,3.413,2.56,5.973,2.56s4.267-0.853,5.973-2.56c3.413-3.413,3.413-8.533,0-11.947l-25.6-25.6     c-3.413-3.413-8.533-3.413-11.947,0s-3.413,8.533,0,11.947L86.893,64.707z" fill="#ffbf00"/>
			<path d="M41.667,203.8h25.6c5.12,0,8.533-3.413,8.533-8.533s-3.413-8.533-8.533-8.533h-25.6c-5.12,0-8.533,3.413-8.533,8.533     S36.547,203.8,41.667,203.8z" fill="#ffbf00"/>
			<path d="M50.2,323.267H24.6c-5.12,0-8.533,3.413-8.533,8.533c0,5.12,3.413,8.533,8.533,8.533h25.6     c5.12,0,8.533-3.413,8.533-8.533C58.733,326.68,55.32,323.267,50.2,323.267z" fill="#ffbf00"/>
		</g>
	</g>
</g>
<g>
</g>
<g>
</g>
<g>
</g>
<g>
</g>
<g>
</g>
<g>
</g>
<g>
</g>
<g>
</g>
<g>
</g>
<g>
</g>
<g>
</g>
<g>
</g>
<g>
</g>
<g>
</g>
<g>
</g>
</svg>
